<mxfile host="app.diagrams.net" modified="2020-08-17T17:23:09.937Z" agent="5.0 (Macintosh; Intel Mac OS X 10_15_6) AppleWebKit/605.1.15 (KHTML, like Gecko) Version/13.1.2 Safari/605.1.15" etag="ua86cMP9hy6wlpzXufNN" version="13.6.2" type="github">
  <diagram name="Page-1" id="5f0bae14-7c28-e335-631c-24af17079c00">
    <mxGraphModel dx="1186" dy="764" grid="1" gridSize="10" guides="1" tooltips="1" connect="1" arrows="1" fold="1" page="1" pageScale="1" pageWidth="1100" pageHeight="850" background="#ffffff" math="0" shadow="0">
      <root>
        <mxCell id="0" />
        <mxCell id="1" parent="0" />
        <mxCell id="39150e848f15840c-1" value="MainActivity" style="verticalAlign=top;align=left;spacingTop=8;spacingLeft=2;spacingRight=12;shape=cube;size=10;direction=south;fontStyle=4;html=1;rounded=0;shadow=0;comic=0;labelBackgroundColor=none;strokeWidth=1;fontFamily=Verdana;fontSize=12" parent="1" vertex="1">
          <mxGeometry x="50" y="70" width="330" height="220" as="geometry" />
        </mxCell>
        <mxCell id="39150e848f15840c-2" value="NewsListViewModel" style="verticalAlign=top;align=left;spacingTop=8;spacingLeft=2;spacingRight=12;shape=cube;size=10;direction=south;fontStyle=4;html=1;rounded=0;shadow=0;comic=0;labelBackgroundColor=none;strokeWidth=1;fontFamily=Verdana;fontSize=12" parent="1" vertex="1">
          <mxGeometry x="430" y="70" width="330" height="220" as="geometry" />
        </mxCell>
        <mxCell id="39150e848f15840c-3" value="NewsRepository" style="verticalAlign=top;align=left;spacingTop=8;spacingLeft=2;spacingRight=12;shape=cube;size=10;direction=south;fontStyle=4;html=1;rounded=0;shadow=0;comic=0;labelBackgroundColor=none;strokeWidth=1;fontFamily=Verdana;fontSize=12" parent="1" vertex="1">
          <mxGeometry x="370" y="410" width="500" height="290" as="geometry" />
        </mxCell>
        <mxCell id="39150e848f15840c-4" value="ListView" style="html=1;rounded=0;shadow=0;comic=0;labelBackgroundColor=none;strokeWidth=1;fontFamily=Verdana;fontSize=12;align=center;" parent="1" vertex="1">
          <mxGeometry x="130" y="140" width="110" height="50" as="geometry" />
        </mxCell>
        <mxCell id="39150e848f15840c-8" value="LiveData&lt;br&gt;" style="html=1;rounded=0;shadow=0;comic=0;labelBackgroundColor=none;strokeWidth=1;fontFamily=Verdana;fontSize=12;align=center;" parent="1" vertex="1">
          <mxGeometry x="450" y="140" width="110" height="50" as="geometry" />
        </mxCell>
        <mxCell id="39150e848f15840c-10" value="NewsDatabase&lt;br&gt;" style="shape=component;align=left;spacingLeft=36;rounded=0;shadow=0;comic=0;labelBackgroundColor=none;strokeWidth=1;fontFamily=Verdana;fontSize=12;html=1;" parent="1" vertex="1">
          <mxGeometry x="385" y="490" width="140" height="60" as="geometry" />
        </mxCell>
        <mxCell id="JW79nm86HifA4s67BdG7-1" value="HackerNewsService" style="shape=component;align=left;spacingLeft=36;rounded=0;shadow=0;comic=0;labelBackgroundColor=none;strokeWidth=1;fontFamily=Verdana;fontSize=12;html=1;" vertex="1" parent="1">
          <mxGeometry x="680" y="460" width="160" height="60" as="geometry" />
        </mxCell>
        <mxCell id="JW79nm86HifA4s67BdG7-2" value="" style="aspect=fixed;perimeter=ellipsePerimeter;html=1;align=center;shadow=0;dashed=0;spacingTop=3;image;image=img/lib/active_directory/server_farm.svg;" vertex="1" parent="1">
          <mxGeometry x="940" y="460" width="90" height="90" as="geometry" />
        </mxCell>
        <mxCell id="JW79nm86HifA4s67BdG7-6" value="ROOM" style="html=1;rounded=0;shadow=0;comic=0;labelBackgroundColor=none;strokeWidth=1;fontFamily=Verdana;fontSize=12;align=center;" vertex="1" parent="1">
          <mxGeometry x="400" y="640" width="110" height="50" as="geometry" />
        </mxCell>
        <mxCell id="JW79nm86HifA4s67BdG7-8" style="edgeStyle=orthogonalEdgeStyle;rounded=0;html=1;dashed=1;labelBackgroundColor=none;startArrow=none;startFill=0;startSize=8;endArrow=open;endFill=0;endSize=16;fontFamily=Verdana;fontSize=12;exitX=0.5;exitY=1;exitDx=0;exitDy=0;entryX=0.5;entryY=0;entryDx=0;entryDy=0;" edge="1" parent="1" source="39150e848f15840c-10" target="JW79nm86HifA4s67BdG7-6">
          <mxGeometry relative="1" as="geometry">
            <mxPoint x="450" y="620" as="sourcePoint" />
            <mxPoint x="490" y="620" as="targetPoint" />
          </mxGeometry>
        </mxCell>
        <mxCell id="JW79nm86HifA4s67BdG7-9" value="Retrofit" style="html=1;rounded=0;shadow=0;comic=0;labelBackgroundColor=none;strokeWidth=1;fontFamily=Verdana;fontSize=12;align=center;" vertex="1" parent="1">
          <mxGeometry x="695" y="640" width="110" height="50" as="geometry" />
        </mxCell>
        <mxCell id="JW79nm86HifA4s67BdG7-10" style="edgeStyle=orthogonalEdgeStyle;rounded=0;html=1;dashed=1;labelBackgroundColor=none;startArrow=none;startFill=0;startSize=8;endArrow=open;endFill=0;endSize=16;fontFamily=Verdana;fontSize=12;entryX=0.5;entryY=0;entryDx=0;entryDy=0;exitX=0.5;exitY=1;exitDx=0;exitDy=0;" edge="1" parent="1" target="JW79nm86HifA4s67BdG7-9" source="JW79nm86HifA4s67BdG7-1">
          <mxGeometry relative="1" as="geometry">
            <mxPoint x="735" y="580" as="sourcePoint" />
            <mxPoint x="770" y="620" as="targetPoint" />
          </mxGeometry>
        </mxCell>
        <mxCell id="JW79nm86HifA4s67BdG7-13" value="" style="endArrow=classic;html=1;entryX=1;entryY=0.25;entryDx=0;entryDy=0;exitX=0.25;exitY=1;exitDx=0;exitDy=0;" edge="1" parent="1" source="JW79nm86HifA4s67BdG7-1">
          <mxGeometry width="50" height="50" relative="1" as="geometry">
            <mxPoint x="649.5727037586357" y="570.2355440597773" as="sourcePoint" />
            <mxPoint x="525" y="520" as="targetPoint" />
          </mxGeometry>
        </mxCell>
        <mxCell id="JW79nm86HifA4s67BdG7-14" value="" style="endArrow=classic;startArrow=classic;html=1;entryX=0;entryY=0.25;entryDx=0;entryDy=0;" edge="1" parent="1" target="JW79nm86HifA4s67BdG7-2">
          <mxGeometry width="50" height="50" relative="1" as="geometry">
            <mxPoint x="840" y="490" as="sourcePoint" />
            <mxPoint x="890" y="440" as="targetPoint" />
          </mxGeometry>
        </mxCell>
        <mxCell id="JW79nm86HifA4s67BdG7-15" value="" style="endArrow=classic;html=1;entryX=0.5;entryY=1;entryDx=0;entryDy=0;exitX=0.893;exitY=0;exitDx=0;exitDy=0;exitPerimeter=0;" edge="1" parent="1" source="39150e848f15840c-10" target="39150e848f15840c-8">
          <mxGeometry width="50" height="50" relative="1" as="geometry">
            <mxPoint x="490" y="490" as="sourcePoint" />
            <mxPoint x="540" y="440" as="targetPoint" />
          </mxGeometry>
        </mxCell>
        <mxCell id="JW79nm86HifA4s67BdG7-16" value="" style="endArrow=classic;html=1;entryX=1;entryY=0.5;entryDx=0;entryDy=0;exitX=0;exitY=0.5;exitDx=0;exitDy=0;" edge="1" parent="1" source="39150e848f15840c-8" target="39150e848f15840c-4">
          <mxGeometry width="50" height="50" relative="1" as="geometry">
            <mxPoint x="520" y="390" as="sourcePoint" />
            <mxPoint x="570" y="340" as="targetPoint" />
          </mxGeometry>
        </mxCell>
        <mxCell id="JW79nm86HifA4s67BdG7-18" value="fetchNews" style="html=1;verticalAlign=bottom;endArrow=block;exitX=1.005;exitY=0.342;exitDx=0;exitDy=0;exitPerimeter=0;" edge="1" parent="1" source="39150e848f15840c-2" target="JW79nm86HifA4s67BdG7-1">
          <mxGeometry width="80" relative="1" as="geometry">
            <mxPoint x="510" y="360" as="sourcePoint" />
            <mxPoint x="590" y="360" as="targetPoint" />
          </mxGeometry>
        </mxCell>
        <mxCell id="JW79nm86HifA4s67BdG7-19" value="subscribe" style="html=1;verticalAlign=bottom;endArrow=block;exitX=0.773;exitY=0.03;exitDx=0;exitDy=0;exitPerimeter=0;" edge="1" parent="1" source="39150e848f15840c-1">
          <mxGeometry width="80" relative="1" as="geometry">
            <mxPoint x="240" y="179.5" as="sourcePoint" />
            <mxPoint x="428" y="240" as="targetPoint" />
            <Array as="points">
              <mxPoint x="400" y="240" />
            </Array>
          </mxGeometry>
        </mxCell>
      </root>
    </mxGraphModel>
  </diagram>
</mxfile>
